<svg xmlns="http://www.w3.org/2000/svg" viewBox="0 0 32 32" height="18" width="18"><title>interface-essential-cog-double</title><g><path fill="#dddddd" d="M28.95 7.62v1.52h1.53v1.53h-1.53v1.52H32V7.62h-3.05z"></path><path fill="#dddddd" d="M28.95 13.71h1.53v1.53h-1.53Z"></path><path fill="#dddddd" d="M28.95 4.57h1.53v1.52h-1.53Z"></path><path fill="#dddddd" d="M27.43 15.24h1.52v1.52h-1.52Z"></path><path fill="#dddddd" d="M27.43 12.19h1.52v1.52h-1.52Z"></path><path fill="#dddddd" d="M27.43 6.09h1.52v1.53h-1.52Z"></path><path fill="#dddddd" d="M27.43 3.05h1.52v1.52h-1.52Z"></path><path fill="#dddddd" d="M25.91 16.76h1.52v1.52h-1.52Z"></path><path fill="#dddddd" d="M25.91 1.52h1.52v1.53h-1.52Z"></path><path fill="#dddddd" d="M24.38 15.24h1.53v1.52h-1.53Z"></path><path fill="#dddddd" d="M24.38 3.05h1.53v1.52h-1.53Z"></path><path fill="#dddddd" d="M19.81 0v3.05h1.53V1.52h1.52v1.53h1.52V0h-4.57z"></path><path fill="#dddddd" d="M21.34 25.9h1.52v1.53h-1.52Z"></path><path fill="#dddddd" d="M19.81 16.76v1.52h3.05v3.05h-3.05v1.53h4.57v-6.1h-4.57z"></path><path fill="#dddddd" d="M19.81 27.43h1.53v1.52h-1.53Z"></path><path fill="#dddddd" d="M19.81 24.38h1.53v1.52h-1.53Z"></path><path fill="#dddddd" d="M19.81 13.71h1.53v1.53h-1.53Z"></path><path fill="#dddddd" d="M19.81 12.19h1.53v1.52h3.04v-1.52h1.53V7.62h-1.53v1.52h-1.52V7.62h1.52V6.09h-4.57v1.53h-1.52v3.05h1.52v1.52z"></path><path fill="#dddddd" d="M18.29 28.95h1.52v1.53h-1.52Z"></path><path fill="#dddddd" d="M18.29 22.86h1.52v1.52h-1.52Z"></path><path fill="#dddddd" d="M18.29 15.24h1.52v1.52h-1.52Z"></path><path fill="#dddddd" d="M18.29 3.05h1.52v1.52h-1.52Z"></path><path fill="#dddddd" d="M16.76 27.43h1.53v1.52h-1.53Z"></path><path fill="#dddddd" d="M16.76 10.67h1.53v1.52h-1.53Z"></path><path fill="#dddddd" d="M16.76 1.52h1.53v1.53h-1.53Z"></path><path fill="#dddddd" d="M15.24 25.9h1.52v1.53h-1.52Z"></path><path fill="#dddddd" d="M15.24 18.28h1.52v3.05h-1.52Z"></path><path fill="#dddddd" d="M15.24 12.19h1.52v1.52h-1.52Z"></path><path fill="#dddddd" d="M15.24 3.05h1.52v1.52h-1.52Z"></path><path fill="#dddddd" d="M13.72 30.48h-3.05v-3.05H9.15V32h6.09v-4.57h-1.52v3.05z"></path><path fill="#dddddd" d="M13.72 21.33h1.52v1.53h-1.52Z"></path><path fill="#dddddd" d="M13.72 16.76h1.52v1.52h-1.52Z"></path><path fill="#dddddd" d="M13.72 4.57h1.52v1.52h-1.52Z"></path><path fill="#dddddd" d="M10.67 15.24h3.05v1.52h-3.05Z"></path><path fill="#dddddd" d="M10.67 22.86h3.05v1.52h-3.05Z"></path><path fill="#dddddd" d="M9.15 21.33h1.52v1.53H9.15Z"></path><path fill="#dddddd" d="M9.15 16.76h1.52v1.52H9.15Z"></path><path fill="#dddddd" d="M10.67 9.14h3.05v3.05h1.52V7.62H9.15v4.57h1.52V9.14z"></path><path fill="#dddddd" d="M7.62 25.9h1.53v1.53H7.62Z"></path><path fill="#dddddd" d="M7.62 18.28h1.53v3.05H7.62Z"></path><path fill="#dddddd" d="M7.62 12.19h1.53v1.52H7.62Z"></path><path fill="#dddddd" d="M6.1 27.43h1.52v1.52H6.1Z"></path><path fill="#dddddd" d="M6.1 10.67h1.52v1.52H6.1Z"></path><path fill="#dddddd" d="M4.57 28.95H6.1v1.53H4.57Z"></path><path fill="#dddddd" d="M4.57 22.86H6.1v1.52H4.57Z"></path><path fill="#dddddd" d="M4.57 15.24H6.1v1.52H4.57Z"></path><path fill="#dddddd" d="M4.57 9.14H6.1v1.53H4.57Z"></path><path fill="#dddddd" d="M3.05 27.43h1.52v1.52H3.05Z"></path><path fill="#dddddd" d="M3.05 24.38h1.52v1.52H3.05Z"></path><path fill="#dddddd" d="M1.53 21.33v-3.05h3.04v-1.52H0v6.1h4.57v-1.53H1.53z"></path><path fill="#dddddd" d="M3.05 13.71h1.52v1.53H3.05Z"></path><path fill="#dddddd" d="M3.05 10.67h1.52v1.52H3.05Z"></path><path fill="#dddddd" d="M1.53 25.9h1.52v1.53H1.53Z"></path><path fill="#dddddd" d="M1.53 12.19h1.52v1.52H1.53Z"></path></g></svg>